# xmcd
#
# Track frame offsets:
#	150
#	1432
#	15949
#	112920
#	140653
#	176556
#	271767
#	274040
#
# Disc length: 3666 seconds
# Revision: 0
# Processed by: cddbd v1.5.2PL0 Copyright (c) Steve Scherf et al.
# Submitted via: dBpowerAMP V12.0
#
DISCID=5e0e5008
DTITLE=Hale Dwoskin - The Inner Circle Retreat 03 CD 04
DYEAR=2007
DGENRE=Speech
TTITLE0=Intro Music
TTITLE1=Challenged Her Decisions
TTITLE2=Anxiety - Being a Medium - About Fear - The Sounds in Your Head
TTITLE3=Disapproving of Yourself - Resisting What Was
TTITLE4=Explaining Your Problems - Labeling a Feeling
TTITLE5=Fear of Public Speaking - Welcoming Both Energies
TTITLE6=Letting Go of Attachments and Aversions
TTITLE7=Concluding Music
EXTD=
EXTT0=
EXTT1=
EXTT2=
EXTT3=
EXTT4=
EXTT5=
EXTT6=
EXTT7=
PLAYORDER=
